<?xml version="1.0" encoding="iso-8859-1"?>
<!-- Generator: Adobe Illustrator 19.0.0, SVG Export Plug-In . SVG Version: 6.00 Build 0)  -->
<svg version="1.1" id="Capa_1" xmlns="http://www.w3.org/2000/svg" xmlns:xlink="http://www.w3.org/1999/xlink" x="0px" y="0px"
	 viewBox="0 0 511.999 511.999" style="enable-background:new 0 0 511.999 511.999;" xml:space="preserve">
<circle style="fill:#73DA92;" cx="255.999" cy="255.998" r="255.998"/>
<path style="fill:#F9435C;" d="M473.863,210.694H13.964l7.607,30.96l7.481,30.459L67.661,429.39
	c1.703,1.849,3.438,3.678,5.193,5.475c46.487,47.595,111.365,77.134,183.149,77.134c70.927,0,135.125-28.849,181.477-75.452
	c1.745-1.755,3.469-3.542,5.162-5.35l41.618-169.461l4.096-20.083l5.747-28.212L473.863,210.694z M69.228,281.35l-2.967-12.173
	c-2.738-11.316,5.83-22.214,17.471-22.214h19.707c9.007,0,16.624,6.656,17.826,15.579l1.62,12.183
	c1.452,10.773-6.928,20.365-17.805,20.365h-18.38C78.392,295.09,71.182,289.406,69.228,281.35z M90.346,368.368l-3.594-14.806
	c-2.748-11.316,5.841-22.214,17.471-22.214h10.553c9.007,0,16.624,6.656,17.815,15.579l1.996,14.806
	c1.442,10.794-6.938,20.375-17.815,20.375h-8.944C99.53,382.108,92.31,376.435,90.346,368.368z M127.836,464.519
	c-4.148,0-8.025-1.411-11.118-3.835c-3.082-2.435-5.371-5.872-6.353-9.895l-2.476-10.198c-2.748-11.316,5.83-22.225,17.471-22.225
	h1.108c8.997,0,16.614,6.666,17.815,15.59l1.369,10.198C147.104,454.926,138.724,464.519,127.836,464.519z M237.247,446.546
	c0,9.926-8.046,17.972-17.983,17.972h-18.568c-8.997,0-16.614-6.656-17.815-15.579l-1.369-10.198
	c-1.452-10.783,6.938-20.375,17.815-20.375h19.937c9.937,0,17.983,8.056,17.983,17.983L237.247,446.546L237.247,446.546z
	 M237.247,364.126c0,9.937-8.046,17.983-17.983,17.983h-29.644c-8.986,0-16.603-6.666-17.805-15.59l-1.996-14.806
	c-1.452-10.773,6.949-20.365,17.826-20.365h31.618c9.937,0,17.983,8.046,17.983,17.972L237.247,364.126L237.247,364.126z
	 M237.247,277.118c0,9.926-8.046,17.972-17.983,17.972h-41.325c-9.007,0-16.614-6.656-17.826-15.579l-1.62-12.183
	c-1.452-10.773,6.928-20.365,17.815-20.365h42.955c9.937,0,17.983,8.046,17.983,17.972L237.247,277.118L237.247,277.118z
	 M329.239,438.742l-1.358,10.198c-1.212,8.923-8.819,15.579-17.826,15.579h-18.568c-9.926,0-17.983-8.046-17.983-17.972v-10.198
	c0-9.926,8.056-17.983,17.983-17.983h19.937C322.301,418.366,330.691,427.958,329.239,438.742z M340.931,351.713l-1.996,14.806
	c-1.191,8.923-8.808,15.59-17.815,15.59h-29.633c-9.926,0-17.983-8.046-17.983-17.983V349.32c0-9.926,8.056-17.972,17.983-17.972
	h31.629C333.993,331.347,342.373,340.94,340.931,351.713z M352.268,267.327l-1.641,12.183c-1.202,8.923-8.819,15.579-17.815,15.579
	h-41.325c-9.926,0-17.983-8.046-17.983-17.972v-12.183c0-9.926,8.056-17.972,17.983-17.972h42.955
	C345.32,246.962,353.721,256.554,352.268,267.327z M402.862,440.591l-2.476,10.198c-1.954,8.056-9.174,13.73-17.471,13.73
	c-10.877,0-19.257-9.592-17.826-20.365l1.379-10.198c1.191-8.923,8.808-15.59,17.815-15.59h1.108
	C397.042,418.366,405.61,429.275,402.862,440.591z M423.99,353.562l-3.594,14.806c-1.954,8.067-9.174,13.74-17.471,13.74h-8.934
	c-10.888,0-19.268-9.582-17.826-20.375l1.996-14.806c1.202-8.923,8.819-15.579,17.815-15.579h10.543
	C418.17,331.347,426.738,342.246,423.99,353.562z M444.48,269.176l-2.957,12.173c-1.954,8.056-9.174,13.74-17.46,13.74h-18.39
	c-10.867,0-19.268-9.592-17.815-20.365l1.641-12.183c1.191-8.923,8.808-15.579,17.815-15.579h19.696
	C438.66,246.962,447.228,257.86,444.48,269.176z"/>
<polygon style="fill:#D31C36;" points="490.058,233.295 494.102,213.442 473.863,210.694 13.964,210.694 19.518,233.295 "/>
<g>
	<path style="fill:#4D4949;" d="M214.913,7.527L214.913,7.527c-10.033-10.033-26.299-10.033-36.332,0L27.069,159.04
		c-10.033,10.033-10.033,26.299,0,36.332l0,0c10.033,10.033,26.299,10.033,36.332,0L214.913,43.859
		C224.945,33.826,224.945,17.56,214.913,7.527z"/>
	<path style="fill:#4D4949;" d="M297.086,7.527L297.086,7.527c10.033-10.033,26.299-10.033,36.332,0L484.93,159.04
		c10.033,10.033,10.033,26.299,0,36.332l0,0c-10.033,10.033-26.299,10.033-36.332,0L297.086,43.859
		C287.054,33.826,287.054,17.56,297.086,7.527z"/>
</g>
<path style="fill:#F9435C;" d="M504.616,163.287H7.383c-4.077,0-7.382,3.305-7.382,7.382v37.48c0,4.077,3.305,7.382,7.382,7.382
	h497.233c4.077,0,7.382-3.305,7.382-7.382v-37.48C511.998,166.592,508.693,163.287,504.616,163.287z"/>
<path style="fill:#FF8693;" d="M437.817,201.947h45.975c5.771,0,10.449-4.678,10.449-10.449l0,0c0-5.771-4.678-10.449-10.449-10.449
	h-45.975c-5.771,0-10.449,4.678-10.449,10.449l0,0C427.368,197.268,432.046,201.947,437.817,201.947z"/>
<g>
</g>
<g>
</g>
<g>
</g>
<g>
</g>
<g>
</g>
<g>
</g>
<g>
</g>
<g>
</g>
<g>
</g>
<g>
</g>
<g>
</g>
<g>
</g>
<g>
</g>
<g>
</g>
<g>
</g>
</svg>
