<?xml version="1.0" encoding="iso-8859-1"?>
<!-- Generator: Adobe Illustrator 19.0.0, SVG Export Plug-In . SVG Version: 6.00 Build 0)  -->
<svg version="1.1" id="Capa_1" xmlns="http://www.w3.org/2000/svg" xmlns:xlink="http://www.w3.org/1999/xlink" x="0px" y="0px"
	 viewBox="0 0 516.8 516.8" style="enable-background:new 0 0 516.8 516.8;" xml:space="preserve">
<path style="fill:#FFFFFF;" d="M398.4,508h-280c-18.4,0-33.6-12-38.4-29.6L10.4,221.6h496l-69.6,256.8C432,496,416,508,398.4,508z"
	/>
<path style="fill:#44C4A1;" d="M118.4,476c-4,0-6.4-2.4-8-5.6L52,253.6h412l-59.2,216.8c-0.8,3.2-4,5.6-8,5.6H118.4z"/>
<g>
	<path style="fill:#FFFFFF;" d="M365.6,287.2c-9.6,0-17.6,8-17.6,17.6V424c0,9.6,8,17.6,17.6,17.6s17.6-8,17.6-17.6V304.8
		C384,295.2,376,287.2,365.6,287.2z"/>
	<path style="fill:#FFFFFF;" d="M258.4,287.2c-9.6,0-17.6,8-17.6,17.6V424c0,9.6,8,17.6,17.6,17.6s17.6-8,17.6-17.6V304.8
		C276,295.2,268,287.2,258.4,287.2z"/>
	<path style="fill:#FFFFFF;" d="M151.2,287.2c-9.6,0-17.6,8-17.6,17.6V424c0,9.6,8,17.6,17.6,17.6s17.6-8,17.6-17.6V304.8
		C168.8,295.2,160.8,287.2,151.2,287.2z"/>
	<path style="fill:#FFFFFF;" d="M158.4,222.4v-73.6c0-55.2,44.8-100,100-100l0,0c55.2,0,100,44.8,100,100v73.6h32v-73.6
		c0-72.8-59.2-132-132-132l0,0c-72.8,0-132,59.2-132,132v73.6H158.4z"/>
</g>
<g>
	<rect x="200" y="324.8" style="fill:#193651;" width="16" height="16"/>
	<rect x="300.8" y="324.8" style="fill:#193651;" width="16" height="16"/>
	<rect x="200" y="388.8" style="fill:#193651;" width="16" height="16"/>
	<rect x="300.8" y="388.8" style="fill:#193651;" width="16" height="16"/>
	<path style="fill:#193651;" d="M118.4,516h279.2c21.6,0,40.8-14.4,46.4-35.2l72.8-267.2H405.6v-64.8c0-81.6-66.4-148-148-148l0,0
		c-81.6,0-148,66.4-148,148v64.8H0l72.8,267.2C78.4,501.6,96.8,516,118.4,516z M126.4,148.8c0-72.8,59.2-132,132-132l0,0
		c72.8,0,132,59.2,132,132v64.8h-32v-64.8c0-55.2-44.8-100-100-100l0,0c-55.2,0-100,44.8-100,100v64.8h-32V148.8z M341.6,148.8v64.8
		H174.4v-64.8c0-46.4,37.6-84,84-84l0,0C304,64.8,341.6,102.4,341.6,148.8z M496,229.6l-67.2,247.2c-4,13.6-16.8,24-31.2,24H118.4
		c-14.4,0-27.2-9.6-31.2-24L20.8,229.6H496z"/>
</g>
<g>
</g>
<g>
</g>
<g>
</g>
<g>
</g>
<g>
</g>
<g>
</g>
<g>
</g>
<g>
</g>
<g>
</g>
<g>
</g>
<g>
</g>
<g>
</g>
<g>
</g>
<g>
</g>
<g>
</g>
</svg>
